<svg width="626" height="97" viewBox="0 0 626 97" fill="none" xmlns="http://www.w3.org/2000/svg">
<rect width="626" height="97" rx="10" fill="white"/>
<path d="M106.644 70C105.164 70 103.804 69.64 102.564 68.92C101.324 68.2 100.344 67.22 99.6241 65.98C98.9041 64.74 98.5441 63.38 98.5441 61.9V34.9C98.5441 33.42 98.9041 32.06 99.6241 30.82C100.344 29.58 101.324 28.6 102.564 27.88C103.804 27.16 105.164 26.8 106.644 26.8H141.624V34.06H107.904C107.264 34.06 106.744 34.26 106.344 34.66C105.944 35.02 105.744 35.52 105.744 36.16V60.64C105.744 61.28 105.944 61.8 106.344 62.2C106.744 62.56 107.264 62.74 107.904 62.74H141.624V70H106.644ZM155.62 70C154.14 70 152.8 69.64 151.6 68.92C150.4 68.16 149.42 67.18 148.66 65.98C147.94 64.78 147.58 63.44 147.58 61.96V43.24C147.58 41.76 147.94 40.42 148.66 39.22C149.42 38.02 150.4 37.06 151.6 36.34C152.8 35.58 154.14 35.2 155.62 35.2H174.88C176.4 35.2 177.76 35.58 178.96 36.34C180.16 37.06 181.12 38.02 181.84 39.22C182.56 40.42 182.92 41.76 182.92 43.24V61.96C182.92 63.44 182.56 64.78 181.84 65.98C181.12 67.18 180.16 68.16 178.96 68.92C177.76 69.64 176.4 70 174.88 70H155.62ZM155.86 62.86H174.64C174.96 62.86 175.22 62.76 175.42 62.56C175.66 62.32 175.78 62.04 175.78 61.72V43.48C175.78 43.16 175.66 42.9 175.42 42.7C175.22 42.46 174.96 42.34 174.64 42.34H155.86C155.54 42.34 155.26 42.46 155.02 42.7C154.82 42.9 154.72 43.16 154.72 43.48V61.72C154.72 62.04 154.82 62.32 155.02 62.56C155.26 62.76 155.54 62.86 155.86 62.86ZM189.303 70V35.2H233.103C234.623 35.2 235.983 35.58 237.183 36.34C238.383 37.06 239.343 38.02 240.063 39.22C240.783 40.42 241.143 41.76 241.143 43.24V70H234.003V43.48C234.003 43.16 233.883 42.9 233.643 42.7C233.443 42.46 233.183 42.34 232.863 42.34H219.963C219.683 42.34 219.423 42.46 219.183 42.7C218.983 42.9 218.883 43.16 218.883 43.48V70H211.623V43.48C211.623 43.16 211.523 42.9 211.323 42.7C211.123 42.46 210.863 42.34 210.543 42.34H197.583C197.303 42.34 197.043 42.46 196.803 42.7C196.603 42.9 196.503 43.16 196.503 43.48V70H189.303ZM247.835 70V35.2H254.975V70H247.835ZM247.835 31V23.8H254.975V31H247.835ZM261.959 70V35.2H289.319C290.759 35.2 292.079 35.58 293.279 36.34C294.519 37.06 295.499 38.02 296.219 39.22C296.939 40.42 297.299 41.76 297.299 43.24V70H290.159V43.48C290.159 43.16 290.039 42.9 289.799 42.7C289.599 42.46 289.359 42.34 289.079 42.34H270.239C269.959 42.34 269.699 42.46 269.459 42.7C269.219 42.9 269.099 43.16 269.099 43.48V70H261.959ZM308.604 83.74V76.54H329.784C330.064 76.54 330.304 76.42 330.504 76.18C330.744 75.98 330.864 75.72 330.864 75.4V70H310.704C309.264 70 307.924 69.64 306.684 68.92C305.484 68.16 304.504 67.18 303.744 65.98C303.024 64.78 302.664 63.44 302.664 61.96V43.24C302.664 41.76 303.024 40.42 303.744 39.22C304.504 38.02 305.484 37.06 306.684 36.34C307.924 35.58 309.264 35.2 310.704 35.2H330.024C331.504 35.2 332.844 35.58 334.044 36.34C335.284 37.06 336.244 38.02 336.924 39.22C337.644 40.42 338.004 41.76 338.004 43.24V75.7C338.004 77.18 337.644 78.52 336.924 79.72C336.244 80.96 335.284 81.94 334.044 82.66C332.844 83.38 331.504 83.74 330.024 83.74H308.604ZM310.944 62.86H329.784C330.064 62.86 330.304 62.76 330.504 62.56C330.744 62.32 330.864 62.04 330.864 61.72V43.48C330.864 43.16 330.744 42.9 330.504 42.7C330.304 42.46 330.064 42.34 329.784 42.34H310.944C310.624 42.34 310.344 42.46 310.104 42.7C309.904 42.9 309.804 43.16 309.804 43.48V61.72C309.804 62.04 309.904 62.32 310.104 62.56C310.344 62.76 310.624 62.86 310.944 62.86ZM370.252 70C368.772 70 367.412 69.64 366.172 68.92C364.972 68.2 364.012 67.22 363.292 65.98C362.572 64.74 362.212 63.38 362.212 61.9V59.02H369.412V61.66C369.412 61.98 369.512 62.24 369.712 62.44C369.912 62.64 370.172 62.74 370.492 62.74H397.012C397.332 62.74 397.592 62.64 397.792 62.44C398.032 62.24 398.152 61.98 398.152 61.66V53.08C398.152 52.8 398.032 52.56 397.792 52.36C397.592 52.12 397.332 52 397.012 52H370.252C368.772 52 367.412 51.64 366.172 50.92C364.972 50.2 364.012 49.24 363.292 48.04C362.572 46.8 362.212 45.44 362.212 43.96V34.9C362.212 33.42 362.572 32.06 363.292 30.82C364.012 29.58 364.972 28.6 366.172 27.88C367.412 27.16 368.772 26.8 370.252 26.8H397.312C398.792 26.8 400.132 27.16 401.332 27.88C402.572 28.6 403.552 29.58 404.272 30.82C405.032 32.06 405.412 33.42 405.412 34.9V37.78H398.152V35.14C398.152 34.82 398.032 34.56 397.792 34.36C397.592 34.16 397.332 34.06 397.012 34.06H370.492C370.172 34.06 369.912 34.16 369.712 34.36C369.512 34.56 369.412 34.82 369.412 35.14V43.72C369.412 44 369.512 44.26 369.712 44.5C369.912 44.7 370.172 44.8 370.492 44.8H397.312C398.792 44.8 400.132 45.16 401.332 45.88C402.572 46.6 403.552 47.58 404.272 48.82C405.032 50.02 405.412 51.36 405.412 52.84V61.9C405.412 63.38 405.032 64.74 404.272 65.98C403.552 67.22 402.572 68.2 401.332 68.92C400.132 69.64 398.792 70 397.312 70H370.252ZM419.643 70C418.163 70 416.823 69.64 415.623 68.92C414.423 68.16 413.443 67.18 412.683 65.98C411.963 64.78 411.603 63.44 411.603 61.96V43.24C411.603 41.76 411.963 40.42 412.683 39.22C413.443 38.02 414.423 37.06 415.623 36.34C416.823 35.58 418.163 35.2 419.643 35.2H438.903C440.423 35.2 441.783 35.58 442.983 36.34C444.183 37.06 445.143 38.02 445.863 39.22C446.583 40.42 446.943 41.76 446.943 43.24V61.96C446.943 63.44 446.583 64.78 445.863 65.98C445.143 67.18 444.183 68.16 442.983 68.92C441.783 69.64 440.423 70 438.903 70H419.643ZM419.883 62.86H438.663C438.983 62.86 439.243 62.76 439.443 62.56C439.683 62.32 439.803 62.04 439.803 61.72V43.48C439.803 43.16 439.683 42.9 439.443 42.7C439.243 42.46 438.983 42.34 438.663 42.34H419.883C419.563 42.34 419.283 42.46 419.043 42.7C418.843 42.9 418.743 43.16 418.743 43.48V61.72C418.743 62.04 418.843 62.32 419.043 62.56C419.283 62.76 419.563 62.86 419.883 62.86ZM459.839 70C458.359 70 457.019 69.64 455.819 68.92C454.619 68.16 453.639 67.18 452.879 65.98C452.159 64.78 451.799 63.44 451.799 61.96V43.24C451.799 41.76 452.159 40.42 452.879 39.22C453.639 38.02 454.619 37.06 455.819 36.34C457.019 35.58 458.359 35.2 459.839 35.2H479.099C480.619 35.2 481.979 35.58 483.179 36.34C484.379 37.06 485.339 38.02 486.059 39.22C486.779 40.42 487.139 41.76 487.139 43.24V61.96C487.139 63.44 486.779 64.78 486.059 65.98C485.339 67.18 484.379 68.16 483.179 68.92C481.979 69.64 480.619 70 479.099 70H459.839ZM460.079 62.86H478.859C479.179 62.86 479.439 62.76 479.639 62.56C479.879 62.32 479.999 62.04 479.999 61.72V43.48C479.999 43.16 479.879 42.9 479.639 42.7C479.439 42.46 479.179 42.34 478.859 42.34H460.079C459.759 42.34 459.479 42.46 459.239 42.7C459.039 42.9 458.939 43.16 458.939 43.48V61.72C458.939 62.04 459.039 62.32 459.239 62.56C459.479 62.76 459.759 62.86 460.079 62.86ZM492.174 70V35.2H519.534C520.974 35.2 522.294 35.58 523.494 36.34C524.734 37.06 525.714 38.02 526.434 39.22C527.154 40.42 527.514 41.76 527.514 43.24V70H520.374V43.48C520.374 43.16 520.254 42.9 520.014 42.7C519.814 42.46 519.574 42.34 519.294 42.34H500.454C500.174 42.34 499.914 42.46 499.674 42.7C499.434 42.9 499.314 43.16 499.314 43.48V70H492.174Z" fill="black"/>
</svg>
