<svg width="423" height="37" viewBox="0 0 423 37" fill="none" xmlns="http://www.w3.org/2000/svg">
<path d="M0.736 37V24.04C0.736 22.952 0.992 21.976 1.504 21.112C2.016 20.216 2.704 19.512 3.568 19C4.464 18.488 5.456 18.232 6.544 18.232H29.824C30.336 18.232 30.768 18.056 31.12 17.704C31.504 17.32 31.696 16.872 31.696 16.36V8.248C31.696 7.736 31.504 7.304 31.12 6.952C30.768 6.568 30.336 6.376 29.824 6.376H6.544C6.032 6.376 5.584 6.568 5.2 6.952C4.848 7.304 4.672 7.736 4.672 8.248V9.592H0.736V8.248C0.736 7.16 0.992 6.184 1.504 5.32C2.016 4.424 2.704 3.72 3.568 3.208C4.464 2.664 5.456 2.392 6.544 2.392H29.824C30.88 2.392 31.84 2.664 32.704 3.208C33.6 3.72 34.304 4.424 34.816 5.32C35.36 6.184 35.632 7.16 35.632 8.248V16.36C35.632 17.416 35.36 18.392 34.816 19.288C34.304 20.152 33.6 20.856 32.704 21.4C31.84 21.912 30.88 22.168 29.824 22.168H6.544C6.032 22.168 5.584 22.36 5.2 22.744C4.848 23.096 4.672 23.528 4.672 24.04V31.192C4.672 31.704 4.848 32.152 5.2 32.536C5.584 32.888 6.032 33.064 6.544 33.064H35.632V37H0.736ZM40.4358 37V9.16H62.9958C64.0518 9.16 65.0118 9.432 65.8758 9.976C66.7718 10.488 67.4758 11.192 67.9878 12.088C68.5318 12.952 68.8038 13.912 68.8038 14.968V37H64.8678V14.968C64.8678 14.456 64.6758 14.024 64.2917 13.672C63.9398 13.288 63.5078 13.096 62.9958 13.096H46.2918C45.7798 13.096 45.3318 13.288 44.9478 13.672C44.5638 14.024 44.3718 14.456 44.3718 14.968V37H40.4358ZM78.2256 37C77.1376 37 76.1456 36.744 75.2496 36.232C74.3856 35.688 73.6816 34.984 73.1376 34.12C72.6256 33.224 72.3696 32.248 72.3696 31.192V14.968C72.3696 13.912 72.6256 12.952 73.1376 12.088C73.6816 11.192 74.3856 10.488 75.2496 9.976C76.1456 9.432 77.1376 9.16 78.2256 9.16H96.8016V0.0399981H100.738V37H78.2256ZM78.2256 33.064H94.9296C95.4416 33.064 95.8736 32.888 96.2256 32.536C96.6096 32.152 96.8016 31.704 96.8016 31.192V14.968C96.8016 14.456 96.6096 14.024 96.2256 13.672C95.8736 13.288 95.4416 13.096 94.9296 13.096H78.2256C77.7136 13.096 77.2656 13.288 76.8816 13.672C76.5296 14.024 76.3536 14.456 76.3536 14.968V31.192C76.3536 31.704 76.5296 32.152 76.8816 32.536C77.2656 32.888 77.7136 33.064 78.2256 33.064ZM124.711 37C123.623 37 122.631 36.744 121.735 36.232C120.871 35.688 120.183 34.984 119.671 34.12C119.159 33.224 118.903 32.248 118.903 31.192V0.0399981H122.839V9.16H134.887V13.096H122.839V31.192C122.839 31.704 123.015 32.152 123.367 32.536C123.751 32.888 124.199 33.064 124.711 33.064H134.887V37H124.711ZM144.303 37C143.247 37 142.271 36.744 141.375 36.232C140.511 35.688 139.807 34.984 139.263 34.12C138.751 33.224 138.495 32.248 138.495 31.192V14.968C138.495 13.912 138.751 12.952 139.263 12.088C139.807 11.192 140.511 10.488 141.375 9.976C142.271 9.432 143.247 9.16 144.303 9.16H161.007C162.095 9.16 163.071 9.432 163.935 9.976C164.831 10.488 165.535 11.192 166.047 12.088C166.591 12.952 166.863 13.912 166.863 14.968V31.192C166.863 32.248 166.591 33.224 166.047 34.12C165.535 34.984 164.831 35.688 163.935 36.232C163.071 36.744 162.095 37 161.007 37H144.303ZM144.303 33.064H161.007C161.519 33.064 161.951 32.888 162.303 32.536C162.687 32.152 162.879 31.704 162.879 31.192V14.968C162.879 14.456 162.687 14.024 162.303 13.672C161.951 13.288 161.519 13.096 161.007 13.096H144.303C143.791 13.096 143.343 13.288 142.959 13.672C142.607 14.024 142.431 14.456 142.431 14.968V31.192C142.431 31.704 142.607 32.152 142.959 32.536C143.343 32.888 143.791 33.064 144.303 33.064ZM190.903 37C189.815 37 188.823 36.744 187.927 36.232C187.063 35.688 186.375 34.984 185.863 34.12C185.351 33.224 185.095 32.248 185.095 31.192V29.8H189.031V31.192C189.031 31.704 189.207 32.152 189.559 32.536C189.943 32.888 190.391 33.064 190.903 33.064H214.183C214.695 33.064 215.127 32.888 215.479 32.536C215.863 32.152 216.055 31.704 216.055 31.192V23.032C216.055 22.52 215.863 22.088 215.479 21.736C215.127 21.352 214.695 21.16 214.183 21.16H185.095V2.392H219.991V6.376H190.903C190.391 6.376 189.943 6.568 189.559 6.952C189.207 7.304 189.031 7.736 189.031 8.248V15.304C189.031 15.816 189.207 16.264 189.559 16.648C189.943 17.032 190.391 17.224 190.903 17.224H214.183C215.239 17.224 216.199 17.48 217.063 17.992C217.959 18.504 218.663 19.208 219.175 20.104C219.719 20.968 219.991 21.944 219.991 23.032V31.192C219.991 32.248 219.719 33.224 219.175 34.12C218.663 34.984 217.959 35.688 217.063 36.232C216.199 36.744 215.239 37 214.183 37H190.903ZM230.555 37C229.467 37 228.475 36.744 227.579 36.232C226.715 35.688 226.027 34.984 225.515 34.12C225.003 33.224 224.747 32.248 224.747 31.192V0.0399981H228.683V9.16H240.731V13.096H228.683V31.192C228.683 31.704 228.859 32.152 229.211 32.536C229.595 32.888 230.043 33.064 230.555 33.064H240.731V37H230.555ZM244.717 37V0.0399981H248.653V9.16H267.277C268.333 9.16 269.293 9.432 270.157 9.976C271.053 10.488 271.757 11.192 272.269 12.088C272.813 12.952 273.085 13.912 273.085 14.968V37H269.149V14.968C269.149 14.456 268.957 14.024 268.573 13.672C268.221 13.288 267.789 13.096 267.277 13.096H250.573C250.061 13.096 249.613 13.288 249.229 13.672C248.845 14.024 248.653 14.456 248.653 14.968V37H244.717ZM293.218 37C292.162 37 291.186 36.744 290.29 36.232C289.426 35.72 288.738 35.032 288.226 34.168C287.714 33.272 287.458 32.296 287.458 31.24V28.504H291.346V31.24C291.346 31.752 291.522 32.2 291.874 32.584C292.258 32.936 292.706 33.112 293.218 33.112H316.258C316.77 33.112 317.202 32.936 317.554 32.584C317.938 32.2 318.13 31.752 318.13 31.24V2.44H322.018V31.24C322.018 32.296 321.762 33.272 321.25 34.168C320.738 35.032 320.034 35.72 319.138 36.232C318.274 36.744 317.314 37 316.258 37H293.218ZM333.071 37C332.015 37 331.039 36.744 330.143 36.232C329.279 35.688 328.575 34.984 328.031 34.12C327.519 33.224 327.263 32.248 327.263 31.192V9.16H331.199V31.192C331.199 31.704 331.375 32.152 331.727 32.536C332.111 32.888 332.559 33.064 333.071 33.064H349.775C350.287 33.064 350.735 32.888 351.119 32.536C351.503 32.152 351.695 31.704 351.695 31.192V9.16H355.631V31.192C355.631 32.248 355.359 33.224 354.815 34.12C354.303 34.984 353.599 35.688 352.703 36.232C351.839 36.744 350.863 37 349.775 37H333.071ZM360.92 37V9.16H383.48C384.536 9.16 385.496 9.432 386.36 9.976C387.256 10.488 387.96 11.192 388.472 12.088C389.016 12.952 389.288 13.912 389.288 14.968V37H385.352V14.968C385.352 14.456 385.16 14.024 384.776 13.672C384.424 13.288 383.992 13.096 383.48 13.096H366.776C366.264 13.096 365.816 13.288 365.432 13.672C365.048 14.024 364.856 14.456 364.856 14.968V37H360.92ZM400.006 37C398.95 37 397.974 36.744 397.078 36.232C396.214 35.688 395.51 34.984 394.966 34.12C394.454 33.224 394.198 32.248 394.198 31.192V14.968C394.198 13.912 394.454 12.952 394.966 12.088C395.51 11.192 396.214 10.488 397.078 9.976C397.974 9.432 398.95 9.16 400.006 9.16H416.71C417.798 9.16 418.774 9.432 419.638 9.976C420.534 10.488 421.238 11.192 421.75 12.088C422.294 12.952 422.566 13.912 422.566 14.968V25.048H398.134V31.192C398.134 31.704 398.31 32.152 398.662 32.536C399.046 32.888 399.494 33.064 400.006 33.064H422.566V37H400.006ZM398.134 21.112H418.582V14.968C418.582 14.456 418.39 14.024 418.006 13.672C417.654 13.288 417.222 13.096 416.71 13.096H400.006C399.494 13.096 399.046 13.288 398.662 13.672C398.31 14.024 398.134 14.456 398.134 14.968V21.112Z" fill="url(#paint0_radial_131_944)"/>
<defs>
<radialGradient id="paint0_radial_131_944" cx="0" cy="0" r="1" gradientUnits="userSpaceOnUse" gradientTransform="translate(219 -46.5) rotate(90) scale(118 881.779)">
<stop stop-color="#4B300E"/>
<stop offset="0.883333" stop-color="#F5DEBD"/>
</radialGradient>
</defs>
</svg>
